<?xml version="1.0" standalone="no"?>
<!DOCTYPE svg PUBLIC "-//W3C//DTD SVG 20010904//EN"
 "http://www.w3.org/TR/2001/REC-SVG-20010904/DTD/svg10.dtd">
<svg version="1.0" xmlns="http://www.w3.org/2000/svg"
 width="1280.000000pt" height="1431.000000pt" viewBox="0 0 1280.000000 1431.000000"
 preserveAspectRatio="xMidYMid meet">

<g transform="translate(0.000000,1431.000000) scale(0.100000,-0.100000)"
fill="#000000" stroke="none">
<path d="M5895 14234 c-460 -275 -875 -619 -1236 -1024 l-139 -155 0 -2996 0
-2997 -22 -5 c-25 -7 -436 -94 -1008 -216 -206 -44 -728 -155 -1160 -246 -432
-92 -874 -186 -983 -209 l-198 -42 -21 -44 c-156 -347 -300 -824 -367 -1225
-23 -132 -53 -357 -49 -360 2 -1 73 13 158 31 85 18 506 108 935 199 429 91
895 190 1035 220 813 173 1671 355 1675 355 3 0 5 -436 5 -970 0 -533 -2 -970
-6 -970 -3 0 -472 -99 -1042 -221 -1126 -239 -1753 -372 -2382 -506 -223 -47
-461 -98 -529 -112 l-125 -27 -58 -138 c-184 -435 -305 -904 -373 -1442 l-6
-51 138 29 c76 16 305 65 508 108 204 44 627 133 940 200 314 67 779 166 1035
220 256 54 744 158 1085 230 341 73 661 145 711 161 241 77 491 253 645 454
61 80 834 1226 870 1290 15 28 40 86 56 130 l28 80 3 927 3 928 22 5 c34 8
1479 315 1483 315 2 0 5 -692 6 -1538 l3 -1539 365 78 c201 43 968 206 1705
363 737 157 1594 339 1905 405 311 66 619 132 685 146 66 14 130 28 143 30 26
6 41 36 124 245 148 371 262 814 318 1229 11 85 19 156 17 158 -2 2 -640 -132
-1418 -298 -1687 -358 -1646 -350 -1879 -399 -102 -22 -247 -52 -322 -68 -75
-17 -139 -27 -142 -24 -4 3 -6 349 -6 768 0 718 1 763 18 768 9 3 82 19 162
35 142 30 401 85 2025 430 441 94 857 182 925 196 215 45 197 36 236 121 51
113 157 402 203 554 94 316 152 599 195 953 5 45 5 47 -17 42 -12 -3 -299 -64
-637 -135 -338 -72 -761 -162 -940 -200 -179 -38 -476 -101 -660 -140 -480
-102 -1052 -224 -1293 -275 -115 -25 -210 -45 -213 -45 -2 0 -5 1244 -6 2765
l-3 2766 -115 -69 c-479 -284 -922 -657 -1294 -1087 l-86 -100 0 -2297 0
-2298 -22 -5 c-13 -3 -108 -23 -213 -45 -720 -153 -1233 -262 -1252 -267 l-23
-5 0 3461 c0 1904 -4 3461 -8 3461 -4 0 -57 -30 -117 -66z"/>
<path d="M12165 2529 c-330 -71 -674 -144 -765 -163 -91 -19 -516 -110 -945
-201 -429 -91 -958 -204 -1175 -250 -217 -46 -600 -127 -850 -180 -250 -53
-458 -100 -463 -104 -4 -4 -37 -79 -73 -167 -170 -413 -290 -870 -349 -1328
-8 -66 -13 -121 -10 -124 2 -3 73 10 157 27 191 41 2528 537 2968 631 179 38
476 101 660 140 184 39 492 105 684 146 193 41 354 78 358 82 15 15 120 279
179 451 127 373 191 657 254 1134 4 31 2 37 -12 36 -10 -1 -288 -59 -618 -130z"/>
</g>
</svg>
